<?xml version="1.0" standalone="no"?>
<!DOCTYPE svg PUBLIC "-//W3C//DTD SVG 20010904//EN"
 "http://www.w3.org/TR/2001/REC-SVG-20010904/DTD/svg10.dtd">
<svg version="1.0" xmlns="http://www.w3.org/2000/svg"
 width="512.000000pt" height="512.000000pt" viewBox="0 0 512.000000 512.000000"
 preserveAspectRatio="xMidYMid meet">

<g transform="translate(0.000000,512.000000) scale(0.100000,-0.100000)"
fill="#000000" stroke="none">
<path d="M239 4826 c-77 -27 -143 -105 -154 -179 -4 -23 -5 -168 -3 -322 3
-270 4 -282 27 -333 14 -32 44 -71 77 -101 l54 -50 0 -745 0 -746 -67 0 c-82
0 -123 -21 -153 -79 -17 -33 -20 -59 -20 -152 0 -153 27 -204 121 -229 l39
-11 0 -724 0 -725 -55 0 c-46 0 -60 -4 -80 -25 -14 -13 -25 -36 -25 -50 0 -14
11 -37 25 -50 l24 -25 2511 0 2511 0 24 25 c14 13 25 36 25 50 0 14 -11 37
-25 50 -20 21 -34 25 -80 25 l-55 0 0 725 0 724 39 11 c94 25 121 76 121 229
0 93 -3 119 -20 152 -30 58 -71 79 -152 79 l-68 0 0 746 0 747 51 48 c28 28
62 74 77 106 l27 58 0 310 c0 345 1 339 -71 409 -74 71 123 66 -2408 66 -1848
-1 -2288 -3 -2317 -14z m4481 -506 c0 -271 -3 -360 -12 -360 -6 0 -31 9 -54
21 -51 24 -80 67 -90 129 -8 56 -38 90 -76 90 -58 0 -76 -24 -92 -122 -8 -46
-68 -102 -119 -112 -90 -17 -179 49 -192 141 -9 60 -37 93 -81 93 -47 0 -74
-27 -81 -80 -7 -57 -25 -91 -63 -123 -94 -80 -241 -14 -257 116 -7 54 -37 87
-79 87 -47 0 -72 -27 -84 -89 -13 -69 -48 -115 -105 -136 -51 -20 -91 -16
-141 15 -35 22 -74 91 -74 132 0 40 -36 78 -75 78 -50 0 -76 -27 -86 -89 -10
-68 -46 -114 -103 -136 -64 -25 -110 -14 -163 39 -35 35 -43 51 -49 95 -9 68
-38 104 -84 104 -46 0 -75 -36 -84 -104 -6 -44 -14 -60 -49 -95 -53 -53 -99
-64 -163 -39 -57 22 -93 68 -103 136 -10 62 -36 89 -86 89 -39 0 -75 -38 -75
-78 0 -41 -39 -110 -74 -132 -50 -31 -90 -35 -141 -15 -57 21 -92 67 -105 136
-6 34 -18 61 -31 72 -49 40 -129 5 -129 -57 0 -47 -37 -113 -78 -138 -48 -30
-130 -31 -169 -2 -44 33 -65 69 -74 126 -10 61 -35 88 -83 88 -43 0 -72 -33
-80 -92 -10 -65 -42 -109 -98 -132 -102 -42 -204 24 -223 147 -8 49 -36 77
-78 77 -46 0 -73 -28 -80 -85 -14 -96 -72 -149 -164 -149 -77 0 -135 48 -153
130 -13 54 -12 480 0 526 6 21 18 42 28 47 11 7 779 10 2235 11 l2217 0 0
-360z m-2993 -490 c104 -39 211 -23 304 46 l49 36 40 -32 c119 -94 286 -93
394 2 l46 40 46 -40 c108 -95 275 -96 394 -2 l40 32 49 -36 c27 -20 68 -43 91
-51 94 -33 221 -10 302 55 l38 31 46 -35 c122 -93 302 -87 410 15 l30 29 25
-26 c69 -74 212 -104 322 -67 l57 20 -2 -746 -3 -746 -82 -3 -83 -3 0 610 c0
426 -3 617 -11 634 -6 14 -22 30 -36 36 -17 8 -263 11 -838 11 l-814 0 -28
-24 -28 -24 -3 -621 -3 -621 -162 2 -162 3 -5 100 c-9 181 -47 217 -303 296
-190 58 -179 58 -271 -11 -29 -22 -56 -40 -59 -40 -3 0 -36 23 -72 50 -36 28
-73 50 -82 50 -22 0 -327 -96 -361 -114 -15 -8 -39 -27 -53 -43 -49 -52 -63
-91 -67 -196 l-4 -98 -82 3 -81 3 -5 645 c-3 355 -6 646 -8 648 -1 2 -18 10
-37 18 -31 13 -39 13 -64 0 -16 -9 -31 -23 -35 -31 -3 -9 -6 -300 -6 -646 l0
-629 -85 0 -85 0 0 725 0 725 35 0 c48 0 126 31 175 70 l40 32 31 -27 c56 -47
110 -68 185 -73 87 -5 155 14 221 65 l45 35 27 -25 c104 -98 296 -102 402 -8
l44 38 39 -33 c22 -19 64 -43 93 -54z m2968 -20 l35 0 0 -725 0 -725 -85 0
-85 0 0 744 0 744 50 -19 c28 -10 66 -19 85 -19z m-605 -565 l0 -245 -84 0
-83 0 -6 74 c-9 124 -66 201 -172 232 -154 44 -295 -69 -295 -238 l0 -68 -84
0 -83 0 -6 71 c-11 126 -69 204 -175 235 -102 30 -207 -14 -262 -109 -26 -45
-30 -62 -30 -124 l0 -73 -85 0 -85 0 0 245 0 245 725 0 725 0 0 -245z m-995
-110 c21 -20 25 -34 25 -80 l0 -55 -80 0 -80 0 0 55 c0 67 29 105 80 105 19 0
40 -9 55 -25z m640 0 c21 -20 25 -34 25 -80 l0 -55 -80 0 -80 0 0 45 c0 48 20
99 42 108 32 13 70 6 93 -18z m350 -535 l0 -245 -82 -3 -83 -3 0 54 c0 162
-94 267 -239 267 -69 0 -108 -16 -159 -64 -50 -47 -65 -83 -71 -171 l-6 -80
-82 -3 -83 -3 0 45 c0 170 -92 276 -239 276 -55 0 -75 -5 -118 -30 -75 -43
-106 -100 -113 -205 l-5 -80 -82 -3 -83 -3 0 251 0 250 723 -2 722 -3 0 -245z
m-2666 -25 c45 -34 83 -55 98 -55 16 0 55 22 101 57 75 56 76 56 116 45 23 -6
53 -15 69 -21 l27 -11 0 -115 0 -115 -395 0 -395 0 0 78 c0 67 3 82 21 98 19
17 233 91 270 93 8 1 48 -24 88 -54z m1678 -77 c19 -18 23 -32 23 -80 l0 -58
-80 0 -80 0 0 57 c0 44 5 62 22 80 28 30 83 31 115 1z m635 8 c23 -17 38 -59
38 -107 l0 -39 -85 0 -85 0 0 55 c0 46 4 60 25 80 27 28 79 33 107 11z m1238
-385 l0 -79 -181 -7 c-158 -7 -184 -10 -200 -26 -27 -27 -24 -75 6 -104 22
-23 32 -25 120 -25 l95 0 0 -725 0 -725 -2250 0 -2250 0 0 725 0 725 2026 2
2026 3 19 24 c25 30 24 62 -2 95 l-20 26 -2102 2 -2102 3 -3 83 -3 82 2411 0
2410 0 0 -79z"/>
<path d="M1385 3631 c-69 -17 -125 -62 -161 -131 -16 -30 -19 -58 -19 -185 0
-133 3 -155 22 -197 32 -70 94 -131 164 -163 55 -24 70 -27 143 -23 96 5 147
28 212 94 67 70 84 127 84 292 0 129 -2 142 -26 190 -49 98 -124 133 -288 131
-56 -1 -114 -4 -131 -8z m274 -177 c19 -24 21 -40 21 -144 0 -105 -2 -120 -23
-151 -50 -74 -136 -100 -213 -63 -76 36 -97 95 -87 243 9 141 8 141 162 141
117 0 120 -1 140 -26z"/>
</g>
</svg>
