<?xml version="1.0" standalone="no"?>
<!DOCTYPE svg PUBLIC "-//W3C//DTD SVG 20010904//EN"
 "http://www.w3.org/TR/2001/REC-SVG-20010904/DTD/svg10.dtd">
<svg version="1.0" xmlns="http://www.w3.org/2000/svg"
 width="512.000000pt" height="512.000000pt" viewBox="0 0 512.000000 512.000000"
 preserveAspectRatio="xMidYMid meet">

<g transform="translate(0.000000,512.000000) scale(0.100000,-0.100000)"
fill="#000000" stroke="none">
<path d="M4233 4408 c-44 -22 -51 -99 -11 -125 7 -4 104 -10 215 -13 196 -5
202 -6 227 -29 36 -34 36 -98 0 -132 l-26 -24 -290 -5 c-272 -5 -291 -6 -304
-24 -24 -33 -18 -82 13 -106 27 -21 34 -21 318 -18 275 3 292 4 330 25 89 48
135 123 135 220 -1 96 -46 169 -135 217 -37 19 -57 21 -245 23 -132 2 -213 -1
-227 -9z"/>
<path d="M324 4296 c-50 -22 -74 -61 -74 -120 1 -28 58 -627 128 -1331 l128
-1280 -176 -5 c-197 -6 -227 -14 -281 -79 -88 -107 -51 -263 76 -322 31 -14
64 -19 147 -19 l107 0 33 -62 c21 -41 65 -95 123 -153 102 -103 198 -160 332
-198 l78 -22 1555 -3 c1095 -2 1566 0 1592 8 22 6 48 24 63 44 l25 33 0 224 0
225 45 22 c87 42 221 132 316 210 328 272 547 701 574 1122 6 84 4 99 -14 127
-11 18 -32 40 -48 50 -26 17 -97 18 -1435 21 -1208 2 -1408 4 -1408 17 0 7 29
308 65 667 36 359 65 676 65 704 0 60 -25 99 -76 120 -49 20 -1894 20 -1940 0z
m1863 -183 c-3 -27 -13 -134 -23 -240 l-18 -192 -183 -3 c-172 -3 -184 -4
-204 -25 -29 -29 -29 -77 0 -106 20 -21 32 -22 197 -25 158 -3 174 -5 170 -20
-2 -9 -19 -173 -37 -363 l-33 -347 -49 -6 c-56 -6 -89 -24 -114 -63 -15 -22
-17 -45 -15 -118 l2 -91 -64 4 c-76 5 -122 -8 -179 -52 -40 -30 -46 -32 -110
-28 -48 3 -81 0 -112 -12 -45 -18 -120 -84 -130 -115 -4 -13 -19 -20 -55 -24
-108 -13 -186 -82 -223 -199 -3 -9 -27 -26 -54 -38 -26 -12 -61 -33 -77 -48
-41 -38 -76 -118 -76 -173 0 -42 -3 -49 -35 -70 -41 -28 -80 -82 -93 -130 -6
-22 -11 -29 -15 -19 -6 15 -187 1847 -187 1887 l0 22 510 3 c509 3 509 3 531
25 28 28 28 79 -1 107 -20 21 -28 21 -540 24 l-520 3 -4 22 c-3 12 -12 101
-21 197 -8 96 -18 194 -21 218 l-6 42 897 0 898 0 -6 -47z m2779 -1510 c-3
-16 -8 -56 -11 -90 l-7 -63 -1333 0 -1333 0 -56 34 c-58 35 -120 50 -160 40
-20 -5 -24 -1 -30 27 -3 17 -6 42 -6 55 l0 24 1471 0 1471 0 -6 -27z m-3096
-268 c27 -23 52 -35 72 -35 20 0 44 12 71 35 71 61 125 47 190 -49 25 -37 59
-42 107 -17 73 38 136 23 159 -39 6 -16 16 -43 22 -59 15 -41 49 -54 105 -40
84 21 134 -19 134 -109 0 -71 29 -102 93 -102 84 0 127 -58 106 -142 -18 -68
-5 -98 50 -119 52 -19 91 -53 91 -80 0 -18 -12 -19 -264 -19 -261 0 -265 0
-290 -22 -38 -35 -42 -69 -13 -104 l25 -29 588 -3 c406 -2 592 -6 601 -14 21
-17 16 -65 -9 -82 -20 -14 -204 -16 -1766 -16 l-1743 0 -24 24 c-24 25 -25 55
-1 75 8 7 364 12 1040 13 l1028 3 25 29 c29 35 25 69 -13 104 l-25 22 -710 0
c-390 0 -709 3 -709 8 0 4 9 21 19 38 17 27 36 39 93 58 9 2 25 17 34 31 15
23 15 32 4 80 -11 44 -11 60 0 85 15 37 56 60 104 60 19 0 42 3 51 6 25 10 45
58 39 95 -3 24 1 44 16 67 28 45 63 57 124 42 43 -11 51 -10 74 7 16 12 32 38
39 64 24 85 85 109 168 68 56 -28 88 -20 120 30 51 81 107 93 175 36z m3015
-114 c-12 -38 -28 -78 -34 -90 l-12 -21 -983 0 -984 0 -10 28 c-20 59 -91 121
-162 143 -14 4 478 8 1092 8 l1117 1 -24 -69z m-140 -290 c-32 -63 -139 -192
-233 -283 -110 -106 -241 -197 -368 -259 -46 -22 -91 -50 -99 -62 -12 -18 -15
-63 -15 -249 l0 -228 -371 0 -372 0 74 78 c41 43 91 108 113 145 l39 67 106 0
c81 0 115 5 147 19 71 32 124 117 124 198 0 49 -50 134 -98 168 l-44 30 -259
3 -259 3 -6 27 c-16 73 -31 101 -81 149 -42 42 -53 59 -53 85 -1 18 -9 57 -19
86 l-18 52 854 0 854 0 -16 -29z"/>
<path d="M1691 2024 c-24 -30 -26 -43 -10 -78 17 -36 58 -49 138 -44 83 4 111
23 111 75 0 58 -26 73 -129 73 -85 0 -91 -1 -110 -26z"/>
<path d="M2255 1889 c-49 -28 -58 -70 -24 -113 19 -25 25 -26 110 -26 76 0 92
3 109 20 25 25 26 71 1 101 -17 21 -29 24 -98 27 -46 1 -86 -2 -98 -9z"/>
<path d="M1215 1815 c-14 -13 -25 -36 -25 -50 0 -14 11 -37 25 -50 21 -22 33
-25 103 -25 97 0 132 20 132 75 0 55 -35 75 -132 75 -70 0 -82 -3 -103 -25z"/>
<path d="M3100 4064 c-58 -25 -99 -63 -126 -116 -22 -44 -26 -61 -22 -124 3
-61 8 -79 33 -116 17 -23 50 -56 74 -73 l43 -30 361 -5 c267 -4 368 -8 384
-18 52 -29 58 -98 14 -143 l-29 -29 -389 0 c-236 0 -403 -4 -425 -10 -56 -16
-119 -69 -147 -125 -23 -44 -26 -61 -26 -162 0 -102 2 -114 22 -134 29 -29 81
-28 105 2 14 16 18 40 18 104 0 45 5 96 11 114 21 60 28 61 450 61 273 0 393
4 423 12 56 17 141 100 155 153 39 143 -42 285 -179 314 -31 7 -179 11 -376
11 l-325 0 -24 25 c-36 35 -35 97 1 130 l27 25 307 0 c296 0 308 1 334 21 33
26 36 79 6 109 -19 19 -33 20 -342 20 -264 -1 -329 -4 -358 -16z"/>
</g>
</svg>
