<?xml version="1.0" standalone="no"?>
<!DOCTYPE svg PUBLIC "-//W3C//DTD SVG 20010904//EN"
 "http://www.w3.org/TR/2001/REC-SVG-20010904/DTD/svg10.dtd">
<svg version="1.0" xmlns="http://www.w3.org/2000/svg"
 width="2000.000000pt" height="2000.000000pt" viewBox="0 0 2000.000000 2000.000000"
 preserveAspectRatio="xMidYMid meet">

<g transform="translate(0.000000,2000.000000) scale(0.100000,-0.100000)"
fill="#000000" stroke="none">
<path d="M14430 16113 c-146 -1 -2530 -7 -5299 -12 -4685 -10 -5035 -11 -5052
-27 -12 -11 -17 -25 -13 -40 5 -18 -69 -127 -378 -561 -710 -995 -1057 -1490
-1063 -1517 -12 -53 -21 -367 -14 -468 14 -186 25 -234 77 -328 26 -46 65
-103 87 -125 113 -114 362 -181 515 -140 169 47 315 159 411 317 22 37 46 65
52 62 7 -3 30 -34 52 -70 22 -36 64 -88 92 -115 l53 -50 0 -2088 0 -2088 -226
-2 c-242 -2 -250 -4 -313 -57 -81 -68 -92 -283 -18 -362 28 -30 135 -62 208
-62 l59 0 0 -2250 0 -2250 6345 0 6346 0 -1 2123 c0 1167 -1 2188 0 2269 l0
147 35 10 c50 13 114 53 151 93 39 41 68 127 60 172 -11 57 -61 115 -124 143
-57 25 -58 25 -268 20 -117 -3 -221 -3 -233 0 l-22 6 2 2069 1 2069 45 52 c51
59 95 145 119 230 8 31 21 57 27 57 12 0 19 -10 95 -145 109 -191 281 -295
492 -295 167 0 293 52 410 169 62 62 82 90 108 152 45 108 55 192 56 454 1
179 -2 235 -13 255 -67 121 -1120 1803 -1281 2046 l-93 142 -611 -1 c-336 -1
-730 -2 -876 -4z m1504 -146 c59 -102 911 -1472 1129 -1815 65 -101 117 -188
117 -193 0 -5 -391 -8 -962 -7 l-962 3 -73 155 c-75 160 -122 263 -388 850
-86 190 -233 508 -326 706 -93 199 -169 366 -169 373 0 8 97 11 353 12 329 2
1158 13 1202 17 16 1 33 -21 79 -101z m-3367 -107 c68 -272 206 -799 282
-1080 38 -140 101 -376 141 -525 39 -148 74 -278 76 -287 5 -17 -48 -18 -1009
-18 l-1014 0 -6 38 c-4 20 -18 172 -32 337 -47 557 -106 1199 -131 1430 -13
127 -24 240 -24 252 0 22 2 23 178 26 97 1 474 2 836 2 l659 0 44 -175z m1868
-295 c111 -258 250 -578 309 -710 132 -294 385 -870 388 -884 2 -8 -301 -11
-981 -11 -542 0 -986 1 -987 3 -2 2 -176 629 -334 1202 -101 368 -237 843
-246 857 -8 13 98 14 880 14 l770 -1 201 -470z m-5359 413 c-12 -97 -115
-1128 -156 -1568 -23 -239 -43 -441 -45 -447 -3 -10 -211 -13 -995 -13 -544 0
-990 2 -990 4 0 3 27 105 59 228 79 296 258 997 416 1623 l53 210 778 5 c429
3 803 6 833 8 l54 2 -7 -52z m1714 4 c0 -69 43 -667 100 -1387 28 -347 50
-634 50 -638 0 -8 -1954 -10 -1961 -2 -3 2 7 150 23 327 96 1124 138 1638 138
1710 l0 28 553 3 c303 1 675 3 825 5 l272 2 0 -48z m-5180 23 c0 -3 -39 -90
-86 -193 -107 -230 -449 -1000 -577 -1297 -182 -421 -239 -550 -245 -557 -9
-8 -1972 -16 -1972 -7 0 3 13 24 28 45 28 39 576 831 891 1289 91 132 236 346
323 475 l159 235 452 5 c781 9 1027 10 1027 5z m1740 1 c0 -2 -9 -32 -20 -67
-27 -91 -342 -1241 -445 -1629 -47 -179 -88 -333 -91 -342 -5 -17 -61 -18
-995 -18 -611 0 -989 4 -989 9 0 6 61 151 136 323 308 708 681 1593 717 1700
6 16 37 18 419 21 977 6 1268 7 1268 3z m4335 -2785 c59 -142 105 -183 315
-287 198 -97 506 -52 650 97 21 21 54 73 75 114 20 41 40 75 43 75 4 0 19 -26
34 -58 19 -41 50 -80 101 -129 61 -58 89 -76 154 -101 108 -42 227 -72 282
-72 207 2 392 104 511 282 34 51 65 94 69 96 4 1 22 -29 41 -68 18 -38 47 -83
64 -99 60 -57 186 -139 261 -170 171 -72 365 -44 528 76 69 51 175 177 207
248 l28 59 30 -59 c17 -33 66 -98 110 -145 71 -76 91 -91 187 -139 133 -65
177 -81 226 -81 l39 0 0 -1995 0 -1995 -72 -2 c-141 -3 -693 3 -730 8 -34 5
-38 9 -43 42 -4 20 -15 62 -26 92 -11 30 -28 123 -38 205 -18 138 -44 238 -73
273 -27 31 -184 55 -478 70 l-125 7 -18 40 c-53 114 -131 145 -280 110 -194
-45 -251 -53 -412 -60 -198 -7 -316 -19 -436 -45 -48 -10 -120 -22 -160 -26
-87 -8 -104 -17 -88 -47 9 -15 8 -57 -1 -159 -12 -130 -10 -268 6 -450 l7 -68
-1337 0 -1336 0 0 26 c0 30 -81 360 -112 454 -11 36 -30 82 -40 104 -18 35
-19 51 -13 167 4 71 11 129 16 129 4 0 64 -53 131 -118 68 -65 145 -138 173
-162 27 -25 96 -89 152 -143 105 -100 200 -166 357 -251 80 -44 96 -49 170
-53 174 -11 297 28 387 124 61 64 84 104 149 258 56 133 79 214 86 308 4 43
10 80 14 82 4 2 26 -25 50 -61 59 -89 93 -113 176 -125 77 -11 150 4 244 48
164 77 317 157 349 182 20 16 59 40 86 54 139 70 316 199 370 271 34 45 65
134 65 186 0 50 -36 173 -68 237 -82 159 -214 273 -412 354 -132 54 -159 70
-180 104 -25 41 -52 51 -91 35 -16 -7 -32 -10 -35 -8 -2 3 3 36 12 75 22 89
15 123 -26 123 -24 0 -30 4 -30 23 0 35 -16 50 -49 50 -27 0 -31 4 -31 28 0
15 -7 35 -16 44 -16 16 -28 16 -68 -1 -17 -6 -18 -4 -14 21 8 37 -10 75 -34
75 -25 0 -69 -23 -92 -49 -13 -14 -31 -21 -55 -21 -49 0 -100 -33 -107 -69 -5
-22 -13 -30 -35 -35 -39 -7 -49 -37 -48 -139 1 -93 -9 -147 -22 -125 -5 7 -9
33 -9 57 0 77 -59 151 -120 151 -12 0 -35 -13 -51 -29 -28 -28 -29 -33 -29
-118 0 -48 5 -104 10 -123 6 -19 11 -89 12 -155 2 -175 -31 -296 -119 -446
-67 -115 -293 -544 -293 -556 0 -21 -14 -15 -46 18 -16 17 -56 54 -89 82 -32
27 -83 79 -113 116 -84 104 -439 447 -529 512 -196 140 -398 211 -693 244
-250 28 -317 41 -334 68 -16 26 4 50 53 62 54 13 111 61 139 116 48 95 112
280 127 364 19 112 19 240 0 346 -16 86 -42 176 -55 194 -4 6 -14 34 -23 63
-15 51 -14 56 8 105 32 74 38 108 25 160 -14 55 -60 101 -115 117 -25 7 -186
13 -427 17 -385 6 -387 6 -448 -17 -66 -25 -104 -66 -131 -145 -15 -45 -19
-342 -6 -433 8 -51 7 -53 -20 -63 -56 -21 -111 -77 -132 -134 -30 -81 -28
-150 7 -206 16 -24 36 -50 45 -57 21 -18 113 -42 160 -42 22 0 37 -5 38 -12 0
-7 2 -122 5 -254 l4 -242 -112 -36 c-62 -20 -117 -36 -122 -36 -5 0 -35 -13
-67 -30 -32 -16 -84 -36 -116 -45 -204 -56 -356 -151 -440 -275 -110 -162
-268 -533 -359 -845 -19 -66 -55 -189 -79 -272 -47 -161 -85 -331 -85 -380 l0
-30 -257 -6 c-141 -4 -728 -7 -1305 -7 l-1048 0 0 2020 0 2020 93 0 c57 0 115
6 147 16 55 16 179 82 214 112 27 25 104 126 117 156 7 14 16 26 20 26 4 0 36
-30 71 -66 118 -123 250 -207 381 -241 75 -19 225 -21 285 -4 145 41 289 147
369 271 21 33 43 60 50 60 6 0 26 -27 44 -60 81 -151 291 -281 481 -297 75 -6
234 25 302 59 64 33 188 164 241 256 26 45 51 82 54 82 3 0 14 -22 24 -50 46
-128 249 -290 417 -331 76 -19 251 -17 325 3 185 50 262 111 335 262 23 48 45
86 48 86 4 0 16 -21 26 -48 13 -32 46 -73 101 -128 121 -121 251 -178 435
-191 100 -7 158 7 286 66 93 44 136 88 201 207 l41 77 26 -55 c66 -140 247
-233 523 -269 51 -6 116 -9 145 -6 67 8 180 63 243 119 48 43 129 156 154 216
8 18 17 32 21 32 4 0 26 -31 48 -68 106 -179 334 -313 531 -312 71 0 180 27
247 60 79 38 207 164 254 248 56 99 69 122 73 122 3 0 21 -40 42 -89z m-2448
-1263 c65 -195 79 -342 47 -509 -18 -97 -105 -339 -139 -389 -39 -57 -67 -68
-214 -87 -52 -6 -215 12 -291 33 -108 31 -196 93 -215 153 -7 23 -25 29 -25 8
0 -33 70 -156 109 -189 49 -42 83 -53 229 -73 123 -17 170 -31 237 -70 l44
-26 -29 -81 c-59 -161 -119 -233 -218 -261 -112 -31 -161 -20 -256 57 -48 40
-140 156 -171 215 -14 27 -18 65 -20 185 -4 214 -21 404 -40 433 -12 17 -25
23 -53 23 -20 0 -61 9 -91 19 -93 30 -110 94 -59 213 20 47 89 116 132 132 26
9 65 -19 82 -60 8 -19 21 -34 29 -34 16 0 21 16 30 100 8 76 35 215 46 231 6
11 16 10 56 -4 66 -23 97 -22 154 10 42 23 53 25 75 14 14 -6 52 -14 84 -18
51 -5 64 -2 102 19 l43 25 50 -18 c28 -10 59 -18 70 -19 24 0 136 38 150 51 5
5 12 9 15 9 4 0 20 -42 37 -92z m2540 -525 c-4 -21 -9 -50 -13 -65 -8 -36 11
-37 47 -2 41 39 63 27 54 -29 -4 -23 -14 -53 -22 -66 -13 -20 -13 -25 -2 -32
9 -6 18 -3 27 9 64 85 90 81 69 -12 -14 -62 2 -80 32 -37 13 17 27 31 32 31
14 0 11 -57 -7 -121 -23 -82 -17 -93 52 -87 52 4 57 3 81 -26 15 -19 80 -58
167 -102 80 -40 140 -76 138 -83 -1 -7 2 -9 9 -5 7 4 20 -3 31 -17 11 -13 16
-17 12 -9 -7 13 -5 13 12 1 60 -46 168 -163 122 -135 -7 4 -8 3 -4 -5 4 -6 11
-9 15 -7 21 13 81 -100 111 -208 24 -87 22 -114 -14 -191 -40 -87 -208 -220
-397 -315 -30 -16 -61 -36 -69 -45 -7 -9 -27 -23 -44 -32 -16 -9 -36 -22 -44
-29 -7 -8 -20 -14 -29 -14 -8 0 -67 -25 -131 -56 -64 -31 -141 -65 -171 -75
-58 -20 -144 -25 -183 -10 -38 14 -102 85 -137 151 l-33 61 30 127 c17 70 41
170 52 222 26 113 64 239 90 296 22 49 74 111 99 119 10 3 23 17 29 30 6 14
17 25 24 25 16 0 58 60 58 83 0 8 -17 36 -37 60 -21 24 -58 72 -83 106 -25 34
-67 87 -95 118 -27 30 -58 69 -67 86 -9 18 -17 28 -18 23 0 -5 -11 0 -23 13
-25 23 -67 36 -67 20 0 -5 -4 -9 -10 -9 -11 0 -13 43 -3 79 5 21 10 23 47 18
44 -6 69 -30 254 -235 46 -50 90 -92 98 -92 26 0 15 39 -21 75 -20 19 -33 40
-30 45 4 6 2 9 -3 8 -4 -2 -50 47 -101 107 -51 61 -97 112 -102 113 -5 2 -9
10 -9 17 0 8 -4 16 -9 19 -5 4 -7 -2 -4 -13 3 -12 -2 -21 -14 -25 -10 -3 -25
-9 -33 -12 -12 -5 -13 -4 -2 7 6 7 12 25 12 41 0 23 6 29 38 37 20 6 45 11 54
11 9 0 38 18 63 40 60 52 80 53 72 3z m-456 -224 c34 -34 52 -89 51 -153 -3
-114 42 -109 77 8 32 107 37 109 108 29 99 -113 176 -205 225 -270 l47 -62
-32 -23 c-51 -36 -143 -132 -170 -180 -14 -23 -35 -74 -45 -113 -11 -38 -25
-83 -32 -100 -19 -50 -89 -349 -96 -412 -3 -32 -12 -78 -19 -103 -7 -25 -16
-78 -20 -118 -8 -96 -24 -144 -97 -309 -91 -206 -137 -264 -248 -309 -56 -23
-81 -27 -175 -28 l-110 -1 -95 54 c-206 118 -213 124 -652 547 l-157 151 -10
284 c-6 156 -13 335 -17 397 l-6 112 26 -10 c80 -30 212 -139 423 -346 l223
-219 54 -115 c30 -63 64 -146 76 -185 68 -223 85 -245 106 -145 14 73 42 151
59 170 8 9 24 38 36 65 12 28 59 118 104 200 189 346 225 412 244 455 62 143
86 348 57 501 -36 190 -5 298 65 228z m-2164 -422 l42 -12 -38 -90 c-100 -242
-246 -373 -441 -397 -46 -5 -97 -7 -114 -4 -56 11 -169 72 -223 120 -68 61
-152 178 -170 236 -35 110 -36 98 9 121 44 22 68 19 68 -9 0 -66 196 -304 285
-347 62 -29 141 -31 221 -5 120 40 211 153 264 328 24 79 26 80 97 59z m225
-36 c4 -3 3 -53 -2 -111 -5 -58 -12 -257 -16 -443 l-6 -338 -547 7 c-300 4
-549 9 -553 13 -3 3 -23 65 -43 136 -20 72 -77 249 -126 394 -49 145 -89 265
-89 266 0 5 132 46 135 43 1 -2 10 -34 19 -71 28 -116 151 -275 270 -350 94
-60 149 -77 250 -77 117 0 205 24 290 80 77 50 120 95 183 193 59 91 89 158
105 225 l11 53 56 -7 c31 -3 59 -9 63 -13z m-1819 -368 c4 -38 16 -115 27
-173 27 -142 76 -487 90 -640 l12 -125 -36 -100 c-41 -113 -93 -271 -128 -390
l-24 -80 -287 -3 -287 -2 6 27 c84 385 275 1006 360 1174 49 98 140 256 171
297 27 36 74 82 84 82 3 0 9 -30 12 -67z m6370 -723 c14 -11 37 -45 51 -75 14
-29 34 -56 43 -59 10 -3 90 -10 178 -16 222 -15 334 -27 373 -41 53 -18 80
-97 102 -297 6 -52 20 -119 31 -150 25 -70 44 -165 53 -259 7 -68 6 -73 -16
-86 -22 -14 -152 -42 -303 -66 -38 -7 -108 -18 -155 -26 -47 -9 -206 -20 -355
-26 -317 -13 -344 -14 -353 -5 -3 4 -9 53 -12 110 -4 76 -11 110 -24 131 -18
27 -19 28 -95 22 -42 -3 -121 -17 -176 -31 -55 -14 -143 -33 -195 -42 -52 -8
-126 -27 -164 -40 -119 -41 -152 -29 -180 65 -22 75 -38 349 -34 566 l4 190
80 11 c43 7 113 19 154 28 87 19 235 32 435 41 128 5 246 23 390 60 78 20 138
18 168 -5z m-6233 -342 c0 -21 -7 -89 -36 -323 -7 -67 -14 -124 -14 -128 0 -4
-25 -7 -56 -7 -41 0 -55 3 -52 13 22 59 83 254 108 350 30 109 50 147 50 95z
m332 -35 c28 -25 24 -81 -7 -95 -19 -9 -29 -8 -50 6 -31 20 -33 58 -5 86 24
24 38 25 62 3z m1696 -66 c23 -18 9 -89 -22 -109 -17 -12 -61 -9 -74 4 -22 22
-14 68 17 99 29 29 47 30 79 6z m-1686 -104 c25 -23 23 -65 -7 -97 -28 -31
-54 -33 -86 -8 -28 23 -30 73 -4 102 22 24 71 26 97 3z m1692 -106 c14 -39
-10 -81 -47 -85 -34 -4 -53 10 -60 44 -12 66 86 103 107 41z m-5875 -684 c13
-26 29 -172 41 -383 28 -510 41 -805 55 -1220 8 -250 17 -491 20 -535 3 -44
12 -235 20 -425 8 -190 24 -500 35 -690 36 -617 40 -712 30 -750 -26 -96 -139
-138 -214 -79 -59 46 -54 -85 -60 1945 -5 1692 -1 2111 19 2143 10 17 43 13
54 -6z m5143 -1633 l3 -379 118 194 118 195 365 0 364 0 0 -312 c0 -278 2
-317 18 -347 27 -55 64 -76 130 -76 68 1 102 21 129 73 16 33 18 70 21 350 l3
312 180 0 179 0 1 -117 c1 -117 1 -118 16 -76 20 59 94 137 156 167 151 73
367 75 513 6 96 -47 173 -151 189 -257 l7 -43 -169 0 -169 0 -13 35 c-16 45
-39 57 -103 53 -42 -2 -55 -8 -71 -30 -17 -23 -19 -31 -9 -53 15 -32 38 -41
190 -71 163 -33 246 -67 294 -121 66 -74 84 -232 37 -333 -66 -141 -220 -220
-426 -220 -157 0 -266 35 -352 114 -45 42 -101 143 -101 184 0 35 -16 26 -29
-17 -6 -22 -28 -62 -49 -90 -97 -128 -236 -191 -427 -191 -199 0 -357 79 -442
221 -57 96 -63 139 -63 477 l0 304 -78 -119 c-43 -65 -106 -162 -141 -216
l-63 -97 59 -93 c33 -50 112 -172 176 -269 l117 -178 -213 0 -213 0 -124 210
-125 211 -3 -211 -2 -210 -180 0 -180 0 0 700 0 700 180 0 180 0 2 -380z
m-3979 295 c120 -31 198 -91 247 -187 25 -52 30 -73 30 -137 0 -63 -5 -86 -29
-136 -27 -56 -103 -145 -125 -145 -5 0 12 -16 39 -35 107 -76 150 -162 150
-300 0 -77 -4 -98 -27 -145 -50 -101 -155 -185 -272 -216 -38 -10 -136 -14
-398 -14 l-348 0 0 665 0 665 338 0 c268 0 350 -3 395 -15z m7262 -1 c109 -28
193 -89 241 -176 26 -48 29 -61 29 -148 0 -83 -3 -101 -27 -145 -14 -28 -49
-72 -77 -98 l-50 -47 28 -14 c15 -8 51 -40 78 -70 l50 -54 12 66 c38 209 192
370 398 418 136 32 302 7 404 -61 21 -14 41 -25 44 -25 3 0 13 16 21 35 l14
35 135 0 135 0 0 -515 0 -515 -139 0 -139 0 -13 33 c-7 17 -13 33 -15 35 -1 2
-24 -10 -50 -26 -74 -46 -140 -65 -239 -69 -166 -9 -300 42 -411 153 -34 34
-74 88 -91 122 l-30 60 -13 -41 c-24 -81 -104 -173 -187 -215 -95 -49 -125
-52 -495 -52 l-348 0 0 665 0 665 338 0 c273 0 349 -3 397 -16z m-5070 -287
c112 -52 181 -142 216 -282 10 -38 18 -61 18 -49 2 40 64 147 123 210 105 111
234 160 402 152 101 -5 182 -30 255 -78 l46 -30 19 40 20 40 123 0 124 0 -3
-527 c-3 -526 -4 -528 -27 -592 -50 -134 -165 -243 -306 -290 -95 -32 -269
-39 -375 -17 -111 23 -207 75 -273 146 -59 63 -104 144 -114 203 l-6 37 166 0
166 0 44 -44 c127 -126 377 -55 377 108 0 33 -3 37 -17 30 -167 -73 -338 -75
-478 -6 -120 59 -199 144 -250 268 l-25 59 0 -202 0 -203 -180 0 -180 0 0 320
c0 272 -2 326 -16 360 -20 50 -56 70 -122 70 -63 0 -109 -30 -139 -90 -22 -43
-23 -53 -23 -352 l0 -308 -180 0 -180 0 0 515 0 515 125 0 125 0 21 -42 c12
-24 23 -45 25 -47 2 -2 27 14 56 35 85 63 164 85 283 81 84 -2 110 -7 160 -30z
m7357 1 c134 -62 226 -208 229 -363 l0 -40 15 55 c50 190 203 334 392 371 130
25 288 -4 390 -72 24 -16 44 -29 46 -29 2 0 11 18 21 40 l18 40 124 0 123 0 0
-494 c0 -292 -4 -515 -10 -547 -27 -142 -126 -275 -251 -336 -188 -93 -471
-81 -639 27 -94 60 -177 177 -195 273 l-7 37 167 0 168 0 34 -40 c61 -71 195
-90 291 -41 47 24 75 60 91 116 21 75 19 77 -61 42 -94 -39 -249 -50 -344 -22
-179 51 -317 190 -358 361 -14 57 -14 49 -15 -173 l-1 -233 -180 0 -180 0 0
323 c0 293 -2 326 -19 363 -21 47 -29 53 -77 64 -81 18 -166 -30 -193 -109 -7
-22 -11 -138 -11 -337 l0 -304 -180 0 -180 0 0 515 0 515 125 0 125 0 26 -51
26 -51 31 30 c37 35 117 77 173 91 22 6 82 9 134 8 78 -2 105 -8 152 -29z
m-8862 -310 c0 -278 2 -317 18 -347 27 -55 64 -76 130 -76 68 1 102 21 129 73
16 33 18 70 21 350 l3 312 180 0 180 0 -3 -347 c-4 -333 -5 -351 -27 -411 -71
-193 -245 -301 -486 -302 -199 0 -357 79 -442 221 -58 97 -63 136 -63 506 l0
333 180 0 180 0 0 -312z m-1734 -2269 c18 -15 18 -53 -1 -69 -12 -10 -21 -10
-45 0 -41 17 -53 35 -46 66 6 24 10 26 42 21 20 -3 42 -11 50 -18z"/>
<path d="M8863 11674 c-27 -34 -34 -37 -73 -36 -24 1 -54 9 -68 18 -16 11 -27
13 -34 6 -28 -28 43 -82 105 -82 46 0 91 29 113 72 14 27 14 32 1 45 -12 12
-18 9 -44 -23z"/>
<path d="M9070 11696 c0 -20 50 -66 74 -67 60 -3 106 19 106 51 0 23 -17 25
-44 5 -27 -20 -56 -18 -86 5 -29 23 -50 26 -50 6z"/>
<path d="M8150 11647 c-62 -49 -78 -125 -37 -172 21 -25 109 -59 121 -48 19
19 3 41 -41 54 -35 11 -49 21 -55 41 -13 39 9 79 55 101 21 10 35 22 32 27 -9
14 -57 12 -75 -3z"/>
<path d="M8970 11506 c0 -19 -3 -41 -6 -50 -5 -13 1 -16 28 -16 19 0 37 3 40
6 8 7 -41 94 -53 94 -5 0 -9 -15 -9 -34z"/>
<path d="M11725 11310 c38 -38 72 -70 74 -70 3 0 -26 32 -64 70 -38 39 -72 70
-74 70 -3 0 26 -31 64 -70z"/>
<path d="M11496 11233 c-6 -14 -5 -15 5 -6 7 7 10 15 7 18 -3 3 -9 -2 -12 -12z"/>
<path d="M11830 11205 c13 -14 26 -25 28 -25 3 0 -5 11 -18 25 -13 14 -26 25
-28 25 -3 0 5 -11 18 -25z"/>
<path d="M11870 11156 c0 -2 8 -10 18 -17 15 -13 16 -12 3 4 -13 16 -21 21
-21 13z"/>
<path d="M11891 10965 c0 -5 6 -21 14 -35 18 -31 19 -43 3 -34 -10 5 -10 4 -1
-6 24 -25 27 0 5 43 -11 23 -21 38 -21 32z"/>
<path d="M12360 10846 c0 -3 9 -10 20 -16 11 -6 20 -8 20 -6 0 3 -9 10 -20 16
-11 6 -20 8 -20 6z"/>
<path d="M12555 10710 c27 -27 51 -50 54 -50 3 0 -17 23 -44 50 -27 28 -51 50
-54 50 -3 0 17 -22 44 -50z"/>
<path d="M12660 10565 c0 -5 5 -17 10 -25 5 -8 10 -10 10 -5 0 6 -5 17 -10 25
-5 8 -10 11 -10 5z"/>
<path d="M12691 10474 c0 -11 3 -14 6 -6 3 7 2 16 -1 19 -3 4 -6 -2 -5 -13z"/>
<path d="M12741 10324 c0 -11 3 -14 6 -6 3 7 2 16 -1 19 -3 4 -6 -2 -5 -13z"/>
<path d="M12545 10094 c-11 -8 -45 -29 -75 -45 -30 -16 -66 -39 -80 -50 -15
-12 0 -7 35 12 71 38 155 89 155 95 0 8 -16 3 -35 -12z"/>
<path d="M12334 9964 c-18 -14 -18 -15 4 -4 12 6 22 13 22 15 0 8 -5 6 -26
-11z"/>
<path d="M12184 9874 c-18 -14 -18 -15 4 -4 12 6 22 13 22 15 0 8 -5 6 -26
-11z"/>
<path d="M12105 9830 c-3 -6 1 -7 9 -4 18 7 21 14 7 14 -6 0 -13 -4 -16 -10z"/>
<path d="M12044 9794 c-18 -14 -18 -15 4 -4 12 6 22 13 22 15 0 8 -5 6 -26
-11z"/>
<path d="M11850 9700 c-8 -5 -10 -10 -5 -10 6 0 17 5 25 10 8 5 11 10 5 10 -5
0 -17 -5 -25 -10z"/>
<path d="M11787 9684 c-3 -3 -30 -10 -59 -14 -42 -6 -46 -8 -18 -9 19 0 55 6
80 13 25 8 36 15 24 15 -11 1 -23 -2 -27 -5z"/>
<path d="M10630 6188 c0 -63 -3 -130 -6 -147 l-6 -31 171 0 c166 0 171 -1 171
-21 0 -11 13 -34 29 -50 25 -25 37 -29 83 -29 65 0 98 24 98 71 0 43 -41 63
-177 89 -200 37 -289 84 -337 182 l-26 52 0 -116z"/>
<path d="M4650 6601 l0 -111 115 0 c113 0 115 1 147 29 29 26 33 35 33 80 0
42 -5 55 -28 78 -26 27 -32 28 -147 31 l-120 4 0 -111z"/>
<path d="M4650 6095 l0 -115 125 0 c122 0 125 1 155 28 61 54 47 158 -25 188
-23 9 -72 14 -145 14 l-110 0 0 -115z"/>
<path d="M11900 6601 l0 -111 115 0 c63 0 125 5 138 11 61 28 74 127 23 178
-25 25 -32 26 -151 29 l-125 4 0 -111z"/>
<path d="M13060 6399 c-88 -37 -134 -110 -135 -215 0 -95 35 -155 115 -197 48
-25 64 -28 121 -25 52 3 77 10 115 33 133 83 134 295 2 383 -35 23 -54 27
-117 29 -42 2 -87 -2 -101 -8z"/>
<path d="M11902 6093 l3 -118 75 -3 c41 -2 100 0 129 3 100 12 149 93 106 175
-26 50 -60 60 -195 60 l-121 0 3 -117z"/>
<path d="M7899 6407 c-24 -13 -57 -43 -74 -66 -28 -39 -30 -50 -30 -126 0 -77
2 -87 30 -127 79 -111 250 -124 342 -26 74 79 69 244 -8 315 -62 57 -182 71
-260 30z"/>
<path d="M15332 6428 c-101 -17 -164 -88 -170 -192 -7 -104 29 -176 107 -215
117 -60 247 -18 306 97 22 44 22 150 -1 194 -46 92 -135 135 -242 116z"/>
</g>
</svg>
